#define lightning_width  8
#define lightning_height 8
static unsigned char lightning_bits[] = {
 0x00,0x30,0x18,0x0c,0x30,0x18,0x0c,0x00};
