#define lightning_inverted_width  8
#define lightning_inverted_height 8
static unsigned char lightning_inverted_bits[] = {
 0xff,0xcf,0xe7,0xf3,0xcf,0xe7,0xf3,0xff};
