#define plug_width  8
#define plug_height 8
static unsigned char plug_bits[] = {
 0x00,0x18,0x3c,0x3c,0x7e,0x24,0x24,0x00};
