#define wifi_width  8
#define wifi_height 8
static unsigned char wifi_bits[] = {
 0x00,0x3c,0x42,0x18,0x24,0x00,0x18,0x00};
